<?xml version="1.0" encoding="utf-8"?>
<!-- Generator: Adobe Illustrator 26.4.1, SVG Export Plug-In . SVG Version: 6.00 Build 0)  -->
<svg version="1.1" id="Layer_1" xmlns="http://www.w3.org/2000/svg" xmlns:xlink="http://www.w3.org/1999/xlink" x="0px" y="0px"
	 viewBox="0 0 36.77 38.3" style="enable-background:new 0 0 36.77 38.3;" xml:space="preserve">
<g>
	<path d="M15.43,38.49c-0.43-0.48-0.57-1.01-0.44-1.67c0.24-1.3,0.28-2.64,0.67-3.93c0.33-1.09-0.29-2.17-1.33-2.65
		c-0.29-0.13-0.4-0.11-0.4,0.22c0,0.41,0.02,0.83-0.05,1.23c-0.09,0.46-0.22,1.02-0.88,0.89c-0.58-0.11-0.55-0.63-0.51-1.07
		c0.04-0.44,0.16-0.88,0.19-1.32c0.02-0.38,0.02-0.8-0.33-1.04c-0.37-0.25-0.65,0.05-0.92,0.26c-0.45,0.36-0.88,0.27-1.1-0.2
		c-0.29-0.6-0.53-0.26-0.76-0.03c-0.85,0.88-1.85,1.54-2.92,2.1c-1.03,0.54-1.72,1.37-2.11,2.47c-0.2,0.56-0.37,1.15-0.77,1.63
		C3.33,35.91,2.78,36,2.21,35.77c-0.55-0.23-0.63-0.75-0.57-1.29c0.04-0.35,0.14-0.7,0.38-0.96C3.6,31.85,4.88,29.87,7,28.77
		c0.39-0.2,0.76-0.48,1.07-0.79c0.3-0.3,1-0.66,0.05-1.07c-0.21-0.09-0.14-0.32-0.06-0.51c0.04-0.08,0.06-0.17,0.09-0.26
		c-1.12,0.09-0.63-0.84-0.87-1.32c-0.2-0.41-0.7-0.39-1.1-0.37c-0.39,0.01-0.72,0.22-1.03,0.45c-0.28,0.21-0.56,0.43-0.87,0.58
		c-0.9,0.43-2.05,0.09-2.31-0.65c-0.24-0.66,0.46-1.66,1.36-1.9c0.4-0.1,0.81-0.12,1.22-0.16c0.35-0.04,0.7-0.03,1.04-0.1
		c0.54-0.11,1.15-0.36,1.19-0.91c0.04-0.51-0.61-0.66-1.05-0.81C4.38,20.51,3,20.41,1.6,20.68c-0.4,0.08-0.76,0.13-1.04-0.22
		c-0.2-0.24-0.22-0.52-0.09-0.8c0.21-0.45,0.66-0.61,1.04-0.46c1.5,0.59,2.93-0.01,4.38-0.19c1.17-0.15,1.48-0.7,1.03-1.8
		c-0.07-0.17-0.23-0.37-0.09-0.53c1.01-1.14-0.01-2.12-0.31-3.11c-0.2-0.65-0.15-0.96,0.51-1.1c0.31-0.06,0.64-0.06,0.94-0.15
		c0.36-0.11,0.88,0.03,0.99-0.54c0.1-0.47-0.03-0.87-0.38-1.21c-1.03-0.99-2.1-1.93-3.4-2.58C4.77,7.77,4.35,7.53,3.98,7.24
		C3.62,6.97,3.33,6.59,3.51,6.09c0.18-0.51,0.54-0.85,1.1-0.94C5.06,5.08,5.5,5.14,5.9,5.37c1.29,0.75,2.56,1.54,3.45,2.79
		c0.17,0.23,0.34,0.52,0.62,0.57c0.67,0.12,1.05,0.5,1.26,1.12c0.14,0.42,0.47,0.72,0.94,0.63c0.5-0.09,0.33-0.55,0.32-0.86
		c-0.01-0.44,0.07-0.73,0.59-0.78c0.73-0.06,0.67-0.43,0.41-0.99c-0.39-0.87-0.88-1.68-1.31-2.53c-0.32-0.63-0.74-1.37-0.06-2
		c0.36-0.33,1.2,0.36,1.58,1.33c0.24,0.62,0.39,1.27,0.63,1.89c0.11,0.3,0.23,0.77,0.68,0.61c0.37-0.13,0.27-0.58,0.17-0.85
		c-0.47-1.28-0.99-2.53-1.5-3.79c-0.14-0.35-0.32-0.69-0.45-1.04c-0.1-0.28-0.08-0.6,0.23-0.74c0.35-0.15,0.52,0.13,0.63,0.4
		c0.15,0.38,0.31,0.77,0.39,1.17c0.39,1.91,1.58,3.36,2.77,4.81c0.24,0.29,0.48,0.42,0.77,0.05c0.06-0.07,0.13-0.2,0.19-0.2
		c1.41,0.01,1.06-1.03,1.03-1.8c-0.04-1.24-0.16-2.47-0.23-3.7C19,0.97,19,0.41,19.67,0.42c0.62,0.01,0.59,0.55,0.57,1
		c-0.03,0.98-0.18,1.97,0.05,2.94c0.29,1.28,0.85,1.51,1.95,0.79c0.62-0.4,1.28-0.69,2.01-0.83c0.88-0.16,1.2,0.16,1.02,1.01
		c-0.04,0.18-0.13,0.36-0.19,0.54c-0.14,0.44-0.84,0.77-0.55,1.2c0.49,0.73,1.12,1.37,1.85,1.9c0.07,0.05,0.21,0.09,0.26,0.06
		c0.73-0.46,1.17-0.34,1.4,0.55c0.11,0.41,0.49,0.31,0.76,0.04c0.45-0.45,0.89-0.91,1.34-1.35c0.12-0.11,0.25-0.35,0.45-0.2
		c0.14,0.11-0.02,0.29-0.07,0.43c-0.27,0.68-0.58,1.34-0.98,1.95c-0.64,0.99-0.43,1.65,0.69,2.02c0.42,0.14,0.87,0.16,1.3,0.27
		c0.81,0.21,0.97,0.62,0.39,1.18c-0.67,0.65-0.67,1.08,0.23,1.45c0.3,0.12,0.6,0.29,0.45,0.71c-0.34,0.95,0.27,1.64,0.78,2.22
		c0.49,0.56,0.49,0.89-0.03,1.32c-0.15,0.12-0.29,0.24-0.44,0.36c-1.09,0.85-1.14,1.04-0.52,2.3c0.2,0.42-0.06,0.64-0.3,0.9
		c-0.74,0.82-0.67,1.1,0.34,1.57c0.23,0.11,0.45,0.24,0.63,0.42c0.27,0.27,0.56,0.61,0.36,1c-0.22,0.44-0.66,0.27-1.02,0.18
		c-0.31-0.08-0.6-0.2-0.9-0.31c-0.21-0.08-0.44-0.18-0.58,0.08c-0.13,0.24,0.01,0.44,0.17,0.59c0.23,0.21,0.51,0.38,0.73,0.6
		c0.19,0.19,0.29,0.43,0.07,0.68c-0.2,0.22-0.4,0.09-0.6,0c-0.09-0.04-0.16-0.1-0.25-0.14c-0.35-0.2-0.87-0.76-0.97-0.62
		c-0.27,0.39,0.25,0.75,0.41,1.14c0.14,0.35,0.38,0.67,0.5,1.02c0.12,0.34,0.32,0.81-0.16,1c-0.4,0.15-0.71-0.18-0.92-0.52
		c-0.27-0.43-0.49-0.89-0.78-1.3c-0.21-0.3-0.42-0.78-0.82-0.71c-0.49,0.09-0.27,0.63-0.32,0.98c-0.06,0.35-0.04,0.72-0.57,0.68
		c-0.46-0.03-0.36,0.35-0.39,0.61c-0.11,1.22,0.23,2.32,0.9,3.33c0.35,0.53,0.7,1.06,1.03,1.6c0.23,0.38,0.4,0.79,0.43,1.25
		c0.03,0.47-0.02,0.91-0.53,1.1c-0.57,0.22-0.92-0.13-1.17-0.56c-0.2-0.35-0.36-0.75-0.44-1.14c-0.3-1.48-0.94-2.82-1.64-4.14
		c-0.09-0.17-0.18-0.34-0.31-0.47c-0.55-0.54-1.2-1.15-1.98-0.81c-0.79,0.34-0.54,1.19-0.43,1.87c0.08,0.53,0.26,1.05,0.34,1.58
		c0.08,0.59,0.25,1.3-0.69,1.35c-0.87,0.05-0.79-0.64-0.81-1.2c-0.01-0.44,0.04-0.89,0.04-1.33c-0.01-0.92-0.87-1.96-1.82-2.19
		c-0.82-0.2-1.97,0.43-2.34,1.32c-0.6,1.43-0.6,2.97-0.83,4.48c-0.12,0.82-0.19,1.64-0.77,2.3C15.81,38.49,15.62,38.49,15.43,38.49z
		 M10.83,24.39c0.01,1.76,0.86,2.64,2.61,2.68c0.76,0.02,1.52,0.04,2.28,0c1.07-0.05,1.99,0.26,2.76,1.03c0.59,0.6,1.32,1,2.14,1.17
		c0.8,0.16,1.65,0.21,2.21-0.48c1.61-1.99,1.83-3.57,0.22-5.45c-0.6-0.7-0.98-1.41-1.19-2.31c-0.46-2.03-1.95-3.17-3.63-2.88
		c-1.06,0.18-2.01,0.61-2.71,1.45c-0.43,0.52-0.92,0.79-1.58,0.93C11.98,20.93,10.82,22.43,10.83,24.39z M20.97,11.16
		c-0.02-1.07-0.17-2.05-1.07-2.6c-0.68-0.41-1.46-0.17-2.06,0.27c-1.45,1.05-2.55,2.38-3.05,4.13c-0.37,1.29,0.35,2.76,1.58,3.33
		c1.18,0.55,2.26,0.23,3.14-0.98C20.42,14.06,20.92,12.64,20.97,11.16z M26.49,14.31c-0.03-1.19-0.23-2.3-0.8-3.32
		c-0.81-1.44-2.05-1.61-3.14-0.36c-1.36,1.57-1.86,3.44-1.53,5.48c0.16,0.98,0.68,1.8,1.71,2.09c1.03,0.29,1.93-0.05,2.69-0.78
		C26.31,16.56,26.46,15.44,26.49,14.31z M11.83,20.18c1.73,0.01,2.67-0.82,2.76-2.37c0.05-1-0.22-1.94-0.74-2.8
		c-0.34-0.55-0.82-0.74-1.46-0.53c-1.06,0.36-1.9,0.98-2.49,1.93c-0.57,0.92-0.52,1.87-0.02,2.79
		C10.32,20.05,11.16,20.14,11.83,20.18z M28.41,21.79c0.01-1.01-0.32-1.92-0.82-2.78c-0.4-0.69-0.98-0.86-1.69-0.51
		c-0.91,0.44-1.6,1.12-2.11,1.98c-0.58,0.98-0.53,1.99,0.09,2.74c0.68,0.81,2.12,1.36,2.87,1.09C27.8,23.93,28.4,23.02,28.41,21.79z
		 M13.31,12.69c-0.03-0.23-0.14-0.38-0.36-0.33c-0.35,0.07-0.52,0.33-0.52,0.67c0,0.19,0.13,0.37,0.36,0.33
		C13.13,13.29,13.25,13,13.31,12.69z M24.29,8.13C23.96,8.27,24,8.57,24,8.84c0.01,0.22,0.05,0.49,0.35,0.44
		c0.29-0.05,0.37-0.34,0.34-0.59C24.68,8.45,24.62,8.19,24.29,8.13z M28.2,16.98c-0.01-0.2-0.03-0.42-0.29-0.38
		c-0.34,0.05-0.43,0.33-0.4,0.62c0.02,0.18,0.09,0.42,0.31,0.39C28.16,17.57,28.17,17.25,28.2,16.98z M20.81,7.38
		c-0.01-0.19-0.09-0.34-0.27-0.29c-0.37,0.09-0.57,0.35-0.59,0.73c-0.01,0.14,0.02,0.36,0.23,0.28C20.51,7.97,20.74,7.73,20.81,7.38
		z"/>
	<path d="M0.19,30.68c0.03,0,0.07,0,0.09-0.01c0.3-0.12,0.61-0.2,0.82,0.13c0.11,0.17,0.11,0.39-0.05,0.51
		c-0.39,0.31-0.61-0.06-0.86-0.26C0.19,30.93,0.19,30.8,0.19,30.68z"/>
	<path d="M34.68,17.36c-0.52-0.16-1.32,0.24-1.44-0.36c-0.08-0.42,0.77-0.22,1.19-0.39c0.49-0.2,1.03-0.29,1.55-0.36
		c0.3-0.04,0.7,0,0.73,0.4c0.02,0.31-0.27,0.48-0.57,0.52C35.65,17.26,35.15,17.31,34.68,17.36z"/>
	<path d="M30.61,33.14c0.61,0.03,1.39,0.87,1.31,1.43c-0.06,0.43-0.39,0.84-0.74,0.7c-0.71-0.29-0.73-1.1-0.93-1.74
		C30.16,33.24,30.33,33.11,30.61,33.14z"/>
	<path d="M3.23,12.15c0.61,0.12,0.85,0.59,0.91,1.13c0.05,0.46-0.35,0.55-0.7,0.55c-0.67,0-0.82-0.45-0.8-1.01
		C2.64,12.44,2.73,12.13,3.23,12.15z"/>
	<path d="M5.52,28.17c-0.41-0.07-0.49-0.4-0.44-0.65c0.13-0.62,0.77-0.74,1.21-1.02c0.19-0.12,0.45,0.11,0.38,0.38
		C6.49,27.5,6.03,27.87,5.52,28.17z"/>
	<path d="M23.55,3.24c-0.13,0.5-0.55,0.59-0.96,0.62c-0.41,0.03-0.3-0.32-0.31-0.55c-0.01-0.42,0.19-0.64,0.64-0.64
		C23.3,2.69,23.52,2.85,23.55,3.24z"/>
	<path d="M34.22,26.88c0.34,0.08,0.72,0.22,0.71,0.68c-0.01,0.28-0.26,0.43-0.54,0.41c-0.38-0.04-0.64-0.26-0.68-0.66
		C33.68,26.99,33.87,26.86,34.22,26.88z"/>
	<path d="M31.33,7.41c-0.37-0.04-0.31-0.29-0.31-0.5c0.01-0.43,0.27-0.6,0.67-0.61c0.28-0.01,0.42,0.14,0.38,0.4
		C32,7.14,31.65,7.29,31.33,7.41z"/>
	<path d="M18.9,34.18c-0.23-0.04-0.35-0.17-0.29-0.39c0.09-0.34,0.25-0.69,0.62-0.73c0.3-0.03,0.24,0.3,0.22,0.5
		C19.42,33.89,19.26,34.14,18.9,34.18z"/>
	<path d="M32.93,11.99c-0.06,0.27-0.28,0.34-0.5,0.35c-0.25,0.02-0.43-0.12-0.4-0.4c0.03-0.25,0.2-0.4,0.45-0.36
		C32.71,11.61,32.89,11.74,32.93,11.99z"/>
	<path d="M5.05,12.21c-0.17-0.05-0.27-0.16-0.23-0.33c0.04-0.23,0.16-0.42,0.41-0.43c0.17-0.01,0.29,0.11,0.24,0.3
		C5.4,11.96,5.28,12.14,5.05,12.21z"/>
	<path d="M34.17,11.99c-0.03,0.19-0.08,0.37-0.32,0.4c-0.19,0.02-0.3-0.08-0.32-0.26c-0.03-0.23,0.08-0.36,0.31-0.38
		C34.01,11.73,34.13,11.81,34.17,11.99z"/>
</g>
</svg>
